<?xml version="1.0" encoding="utf-8"?>
<!-- Generator: Adobe Illustrator 23.0.1, SVG Export Plug-In . SVG Version: 6.00 Build 0)  -->
<svg version="1.1" id="Layer_1" xmlns="http://www.w3.org/2000/svg" xmlns:xlink="http://www.w3.org/1999/xlink" x="0px" y="0px"
	 viewBox="0 0 156.7 19" style="enable-background:new 0 0 156.7 19;" xml:space="preserve">
<style type="text/css">
	.st0{fill:none;}
	.st1{enable-background:new    ;}
	.st2{fill:#ffffff;}
</style>
<g>
	<g>
		<rect x="-50.7" class="st0" width="288" height="41.7"/>
	</g>
	<g class="st1">
		<path class="st2" d="M15.9,17.6h-1.6c-0.2,0-0.5,0-0.6-0.1c-0.2-0.1-0.4-0.2-0.5-0.3l-2.5-2.7c-0.8,0.3-1.6,0.4-2.5,0.4
			c-1,0-2-0.2-2.9-0.5c-0.9-0.4-1.6-0.9-2.2-1.5c-0.6-0.6-1.1-1.4-1.4-2.3C1.4,9.6,1.2,8.6,1.2,7.5c0-1.1,0.2-2,0.5-2.9
			c0.3-0.9,0.8-1.7,1.4-2.3c0.6-0.6,1.4-1.1,2.2-1.5s1.8-0.5,2.9-0.5c1,0,2,0.2,2.9,0.5c0.9,0.4,1.6,0.9,2.2,1.5s1.1,1.4,1.4,2.3
			c0.3,0.9,0.5,1.9,0.5,2.9c0,0.7-0.1,1.3-0.2,1.9s-0.3,1.2-0.6,1.7s-0.6,1-0.9,1.4c-0.4,0.4-0.8,0.8-1.3,1.1L15.9,17.6z M3.2,7.5
			c0,0.9,0.1,1.7,0.4,2.3c0.2,0.7,0.6,1.3,1,1.8c0.4,0.5,1,0.8,1.6,1.1c0.6,0.3,1.3,0.4,2.1,0.4c0.8,0,1.5-0.1,2.1-0.4
			c0.6-0.3,1.2-0.6,1.6-1.1c0.4-0.5,0.8-1.1,1-1.8c0.2-0.7,0.4-1.5,0.4-2.3s-0.1-1.7-0.4-2.4c-0.2-0.7-0.6-1.3-1-1.8s-1-0.8-1.6-1.1
			C9.7,2.1,9,1.9,8.2,1.9c-0.8,0-1.5,0.1-2.1,0.4S5,2.9,4.6,3.4c-0.4,0.5-0.8,1.1-1,1.8S3.2,6.7,3.2,7.5z"/>
		<path class="st2" d="M24.5,13.1c0.6,0,1.1-0.1,1.6-0.3c0.5-0.2,0.9-0.5,1.2-0.8c0.3-0.4,0.6-0.8,0.7-1.3c0.2-0.5,0.3-1,0.3-1.6
			V0.4h1.9v8.7c0,0.8-0.1,1.6-0.4,2.3c-0.3,0.7-0.6,1.3-1.1,1.8c-0.5,0.5-1.1,0.9-1.8,1.2c-0.7,0.3-1.5,0.4-2.4,0.4
			s-1.7-0.1-2.4-0.4c-0.7-0.3-1.3-0.7-1.8-1.2c-0.5-0.5-0.9-1.1-1.1-1.8c-0.3-0.7-0.4-1.5-0.4-2.3V0.4h1.9v8.6
			c0,0.6,0.1,1.1,0.3,1.6c0.2,0.5,0.4,0.9,0.7,1.3c0.3,0.4,0.7,0.6,1.2,0.8S23.9,13.1,24.5,13.1z"/>
		<path class="st2" d="M43.4,13.1l0,1.6h-8.8V0.4h8.8V2h-6.8v4.7H42v1.5h-5.5v4.9H43.4z"/>
		<path class="st2" d="M55.8,13.1l0,1.6H47V0.4h8.8V2H49v4.7h5.5v1.5H49v4.9H55.8z"/>
		<path class="st2" d="M71,0.4v14.2h-1c-0.2,0-0.3,0-0.4-0.1c-0.1-0.1-0.2-0.1-0.3-0.3L61.2,3.6c0,0.2,0,0.3,0,0.5
			c0,0.2,0,0.3,0,0.4v10.1h-1.7V0.4h1c0.1,0,0.2,0,0.2,0s0.1,0,0.2,0c0,0,0.1,0.1,0.1,0.1c0,0,0.1,0.1,0.1,0.2l8.2,10.7
			c0-0.2,0-0.3,0-0.5c0-0.2,0-0.3,0-0.5V0.4H71z"/>
	</g>
	<g class="st1">
		<path class="st2" d="M84.9,1.2h-5.1v13.5h-0.5V1.2h-5.1V0.7h10.8V1.2z"/>
		<path class="st2" d="M98.8,0.7v14h-0.6V7.8h-9.4v6.9h-0.5v-14h0.5v6.7h9.4V0.7H98.8z"/>
		<path class="st2" d="M112.5,14.2l0,0.5h-8.2v-14h8.2v0.5h-7.7v6.2h6.5v0.5h-6.5v6.4H112.5z"/>
		<path class="st2" d="M130.2,0.7v14h-0.5V1.9c0-0.1,0-0.1,0-0.2c0-0.1,0-0.1,0-0.2l-5.9,10.3c-0.1,0.1-0.1,0.2-0.2,0.2h-0.1
			c-0.1,0-0.2-0.1-0.2-0.2l-6-10.3c0,0.1,0,0.1,0,0.2c0,0.1,0,0.1,0,0.2v12.8h-0.5v-14h0.3c0.1,0,0.1,0,0.1,0s0.1,0.1,0.1,0.1
			l6.1,10.3c0.1,0.1,0.1,0.2,0.2,0.4c0-0.1,0.1-0.1,0.1-0.2c0-0.1,0.1-0.1,0.1-0.2l5.9-10.3c0-0.1,0.1-0.1,0.1-0.1c0,0,0.1,0,0.1,0
			H130.2z"/>
		<path class="st2" d="M143.9,14.2l0,0.5h-8.2v-14h8.2v0.5h-7.7v6.2h6.5v0.5h-6.5v6.4H143.9z"/>
		<path class="st2" d="M154.8,2.1c0,0.1-0.1,0.1-0.2,0.1s-0.2-0.1-0.3-0.2c-0.1-0.1-0.3-0.3-0.5-0.4c-0.2-0.2-0.5-0.3-0.9-0.4
			C152.5,1,152.1,1,151.5,1c-0.5,0-1,0.1-1.4,0.2c-0.4,0.2-0.8,0.4-1.1,0.7c-0.3,0.3-0.5,0.6-0.6,1c-0.1,0.4-0.2,0.7-0.2,1.1
			c0,0.5,0.1,0.9,0.3,1.3c0.2,0.3,0.5,0.6,0.8,0.9s0.7,0.4,1.1,0.6c0.4,0.2,0.9,0.3,1.3,0.5s0.9,0.3,1.3,0.5
			c0.4,0.2,0.8,0.4,1.1,0.6c0.3,0.3,0.6,0.6,0.8,1c0.2,0.4,0.3,0.9,0.3,1.4c0,0.6-0.1,1.1-0.3,1.6c-0.2,0.5-0.5,0.9-0.9,1.3
			s-0.8,0.7-1.4,0.9c-0.5,0.2-1.2,0.3-1.8,0.3c-0.5,0-0.9,0-1.3-0.1c-0.4-0.1-0.7-0.2-1.1-0.4c-0.3-0.2-0.6-0.3-0.9-0.6
			c-0.3-0.2-0.5-0.5-0.8-0.8l0.1-0.2c0,0,0.1-0.1,0.1-0.1s0.1,0,0.1,0s0.1,0,0.2,0.1s0.2,0.2,0.3,0.3c0.1,0.1,0.3,0.3,0.5,0.4
			s0.4,0.3,0.7,0.4c0.3,0.1,0.5,0.2,0.9,0.3c0.3,0.1,0.7,0.1,1.1,0.1c0.6,0,1.1-0.1,1.6-0.3c0.5-0.2,0.9-0.4,1.2-0.8
			c0.3-0.3,0.6-0.7,0.8-1.1c0.2-0.4,0.3-0.9,0.3-1.4c0-0.5-0.1-1-0.3-1.3c-0.2-0.3-0.5-0.6-0.8-0.9c-0.3-0.2-0.7-0.4-1.1-0.6
			c-0.4-0.2-0.9-0.3-1.3-0.4c-0.4-0.1-0.9-0.3-1.3-0.5c-0.4-0.2-0.8-0.4-1.1-0.6c-0.3-0.3-0.6-0.6-0.8-1c-0.2-0.4-0.3-0.9-0.3-1.5
			c0-0.5,0.1-0.9,0.3-1.3c0.2-0.4,0.4-0.8,0.8-1.1c0.3-0.3,0.7-0.6,1.2-0.8c0.5-0.2,1-0.3,1.7-0.3c0.7,0,1.3,0.1,1.9,0.3
			c0.5,0.2,1,0.6,1.5,1.1L154.8,2.1z"/>
	</g>
</g>
</svg>
